<svg xmlns="http://www.w3.org/2000/svg" xmlns:xlink="http://www.w3.org/1999/xlink" width="84" height="84" viewBox="0 0 84 84" fill="#fff">
  <defs>
    <clipPath id="clip-_3x_13">
      <rect width="84" height="84"/>
    </clipPath>
  </defs>
  <g id="_3x_13" data-name="@3x – 13" clip-path="url(#clip-_3x_13)">
    <g id="Group_169" data-name="Group 169" transform="translate(-6934.68 2963.475)">
      <g id="Group_164" data-name="Group 164">
        <g id="Group_163" data-name="Group 163">
          <path id="Path_67" data-name="Path 67" d="M6976.68-2954.475a33.038,33.038,0,0,1,33,33,33.037,33.037,0,0,1-33,33,33.036,33.036,0,0,1-33-33,33.037,33.037,0,0,1,33-33m0-3a36,36,0,0,0-36,36,36,36,0,0,0,36,36,36,36,0,0,0,36-36,36,36,0,0,0-36-36Z"/>
        </g>
      </g>
      <g id="Group_166" data-name="Group 166">
        <g id="Group_165" data-name="Group 165">
          <rect id="Rectangle_8" data-name="Rectangle 8" width="4" height="36" transform="translate(6974.68 -2939.474)"/>
        </g>
      </g>
      <g id="Group_168" data-name="Group 168">
        <g id="Group_167" data-name="Group 167">
          <rect id="Rectangle_9" data-name="Rectangle 9" width="36" height="4" transform="translate(6958.68 -2923.474)"/>
        </g>
      </g>
    </g>
  </g>
</svg>
