<svg xmlns="http://www.w3.org/2000/svg" xmlns:xlink="http://www.w3.org/1999/xlink" width="84" height="84" viewBox="0 0 84 84">
  <defs>
    <clipPath id="clip-_3x_39">
      <rect width="84" height="84"/>
    </clipPath>
  </defs>
  <g id="_3x_39" data-name="@3x – 39" clip-path="url(#clip-_3x_39)">
    <g id="Group_294" data-name="Group 294" transform="translate(-7215.979 3099.935)">
      <g id="Group_293" data-name="Group 293" transform="translate(7228.98 -3087.935)">
        <path id="Path_129" data-name="Path 129" d="M7244.944-3027.935a15.661,15.661,0,0,1-11.069-4.521l-.711-.7a13.977,13.977,0,0,1-.007-19.938l31.684-31.271a12.527,12.527,0,0,1,17.513,0,12.041,12.041,0,0,1,3.626,8.63,12.037,12.037,0,0,1-3.626,8.629l-32.164,31.7a8.385,8.385,0,0,1-5.927,2.42h-.028a8.385,8.385,0,0,1-5.937-2.456l-1.1-1.1a8.524,8.524,0,0,1,.354-11.954l21.534-20.99,2.117,2.11-21.528,20.984a5.617,5.617,0,0,0-.333,7.764l1.1,1.1a5.372,5.372,0,0,0,3.8,1.573,5.533,5.533,0,0,0,3.815-1.55l32.165-31.7a9.155,9.155,0,0,0,0-13.062,9.385,9.385,0,0,0-6.627-2.7,9.381,9.381,0,0,0-6.625,2.7L7235.289-3051a11.035,11.035,0,0,0,0,15.742l.711.7a12.652,12.652,0,0,0,8.94,3.651,12.656,12.656,0,0,0,8.942-3.651l20.729-20.338,2.124,2.1-20.727,20.335A15.666,15.666,0,0,1,7244.944-3027.935Z" transform="translate(-7228.98 3087.935)"/>
      </g>
    </g>
  </g>
</svg>
