<svg xmlns="http://www.w3.org/2000/svg" xmlns:xlink="http://www.w3.org/1999/xlink" width="84" height="84" viewBox="0 0 84 84">
  <defs>
    <clipPath id="clip-_3x_19">
      <rect width="84" height="84"/>
    </clipPath>
  </defs>
  <g id="_3x_19" data-name="@3x – 19" clip-path="url(#clip-_3x_19)">
    <g id="Group_780" data-name="Group 780" transform="translate(-6934.733 3226.324)">
      <g id="Group_210" data-name="Group 210" transform="translate(6958.733 -3215.823)">
        <path id="Path_90" data-name="Path 90" d="M6990.788-3152.823a3.977,3.977,0,0,1-2.836-1.187l-28.625-28.8a2.075,2.075,0,0,1,0-2.908l28.555-28.918a3.987,3.987,0,0,1,6.205.66,4.165,4.165,0,0,1-.607,5.159l-24.246,24.554,24.238,24.35a4.255,4.255,0,0,1,.008,6.039A3.97,3.97,0,0,1,6990.788-3152.823Z" transform="translate(-6958.732 3215.823)"/>
      </g>
    </g>
  </g>
</svg>
