<svg xmlns="http://www.w3.org/2000/svg" xmlns:xlink="http://www.w3.org/1999/xlink" width="104" height="104" viewBox="0 0 104 104">
  <defs>
    <clipPath id="clip-MY">
      <rect width="104" height="104"/>
    </clipPath>
  </defs>
  <g id="MY" clip-path="url(#clip-MY)">
    <g id="Group_581" data-name="Group 581" transform="translate(1739.808 -4776.735)">
      <g id="Group_579" data-name="Group 579">
        <path id="Path_295" data-name="Path 295" d="M-1663.456,4855.782a2.988,2.988,0,0,1-2.121-.879l-48.79-48.79a3,3,0,0,1,0-4.242,3,3,0,0,1,4.242,0l48.79,48.79a3,3,0,0,1,0,4.242A2.99,2.99,0,0,1-1663.456,4855.782Z"/>
      </g>
      <g id="Group_580" data-name="Group 580">
        <path id="Path_296" data-name="Path 296" d="M-1712.953,4855.782a2.988,2.988,0,0,1-2.121-.879,3,3,0,0,1,0-4.242l48.79-48.79a3,3,0,0,1,4.242,0,3,3,0,0,1,0,4.242l-48.79,48.79A2.992,2.992,0,0,1-1712.953,4855.782Z"/>
      </g>
    </g>
  </g>
</svg>
