<svg xmlns="http://www.w3.org/2000/svg" xmlns:xlink="http://www.w3.org/1999/xlink" width="84" height="84" viewBox="0 0 84 84">
  <defs>
    <clipPath id="clip-_3x_28">
      <rect width="84" height="84"/>
    </clipPath>
  </defs>
  <g id="_3x_28" data-name="@3x – 28" clip-path="url(#clip-_3x_28)">
    <g id="Group_269" data-name="Group 269" transform="translate(-6676.902 2704.283)">
      <g id="Group_267" data-name="Group 267">
        <path id="Path_120" data-name="Path 120" d="M6718.9-2688.283a26.029,26.029,0,0,1,26,26,26.03,26.03,0,0,1-26,26,26.03,26.03,0,0,1-26-26,26.029,26.029,0,0,1,26-26m0-4a30,30,0,0,0-30,30,30,30,0,0,0,30,30,30,30,0,0,0,30-30,30,30,0,0,0-30-30Z"/>
      </g>
      <g id="Group_268" data-name="Group 268">
        <path id="Path_121" data-name="Path 121" d="M6748.9-2662.283a30,30,0,0,1-30,30v-60A30,30,0,0,1,6748.9-2662.283Z"/>
      </g>
    </g>
  </g>
</svg>
