<svg xmlns="http://www.w3.org/2000/svg" xmlns:xlink="http://www.w3.org/1999/xlink" width="104" height="104" viewBox="0 0 104 104" fill="#fff">
  <defs>
    <clipPath id="clip-_3x_119">
      <rect width="104" height="104"/>
    </clipPath>
  </defs>
  <g id="_3x_119" data-name="@3x – 119" clip-path="url(#clip-_3x_119)">
    <g id="Group_574" data-name="Group 574" transform="translate(-7110.108 -1403.355)">
      <path id="Path_287" data-name="Path 287" d="M7132.108,1432.355a6.018,6.018,0,0,0-6,6v53a6.018,6.018,0,0,0,6,6h35a6.017,6.017,0,0,0,6-6v-35l-24-24Zm17,24v-19l19,19Z"/>
      <path id="Path_288" data-name="Path 288" d="M7174.108,1414.355h-17a6.018,6.018,0,0,0-6,6v6.343l26,26v26.657h15a6.017,6.017,0,0,0,6-6v-35Zm0,24v-19l19,19Z"/>
    </g>
  </g>
</svg>
