<svg xmlns="http://www.w3.org/2000/svg" xmlns:xlink="http://www.w3.org/1999/xlink" width="84" height="84" viewBox="0 0 84 84">
  <defs>
    <clipPath id="clip-Recently_deleted_3x">
      <rect width="84" height="84"/>
    </clipPath>
  </defs>
  <g id="Recently_deleted_3x" clip-path="url(#clip-Recently_deleted_3x)">
    <g id="Group_1377" data-name="Group 1377" transform="translate(-3694.5 -4532.006)">
      <g id="Group_1364" data-name="Group 1364" transform="translate(3708 4553.006)">
        <path id="Path_837" data-name="Path 837" d="M3762.75,4553.506h-52.5a2.25,2.25,0,0,1,0-4.5h52.5a2.25,2.25,0,0,1,0,4.5Z" transform="translate(-3708 -4549.006)"/>
      </g>
      <g id="Group_1365" data-name="Group 1365" transform="translate(3713.931 4553.006)">
        <path id="Path_838" data-name="Path 838" d="M3749.673,4603.006h-30.3a5.932,5.932,0,0,1-5.957-5.78l-1.462-48.22h45.138l-1.462,48.22A5.932,5.932,0,0,1,3749.673,4603.006Zm-33.081-49.5,1.321,43.582a1.455,1.455,0,0,0,1.46,1.418h30.3a1.455,1.455,0,0,0,1.46-1.415l1.321-43.585Z" transform="translate(-3711.954 -4549.006)"/>
      </g>
      <g id="Group_1366" data-name="Group 1366" transform="translate(3723 4541.006)">
        <path id="Path_839" data-name="Path 839" d="M3745,4557.506h-27v-9.25a7.258,7.258,0,0,1,7.25-7.25h12.5a7.258,7.258,0,0,1,7.25,7.25Zm-22.5-4.5h18v-4.75a2.753,2.753,0,0,0-2.75-2.75h-12.5a2.753,2.753,0,0,0-2.75,2.75Z" transform="translate(-3718 -4541.006)"/>
      </g>
      <g id="Group_1367" data-name="Group 1367" transform="translate(3734.25 4562.006)">
        <path id="Path_840" data-name="Path 840" d="M3727.75,4591.006a2.251,2.251,0,0,1-2.25-2.25v-31.5a2.25,2.25,0,0,1,4.5,0v31.5A2.251,2.251,0,0,1,3727.75,4591.006Z" transform="translate(-3725.5 -4555.006)"/>
      </g>
      <g id="Group_1368" data-name="Group 1368" transform="translate(3742.5 4562.004)">
        <path id="Path_841" data-name="Path 841" d="M3733.252,4591.006l-.108,0a2.25,2.25,0,0,1-2.141-2.354l1.5-31.5a2.22,2.22,0,0,1,2.354-2.14,2.25,2.25,0,0,1,2.14,2.355l-1.5,31.5A2.249,2.249,0,0,1,3733.252,4591.006Z" transform="translate(-3731 -4555.005)"/>
      </g>
      <g id="Group_1369" data-name="Group 1369" transform="translate(3724.5 4562.003)">
        <path id="Path_842" data-name="Path 842" d="M3722.748,4591.007a2.249,2.249,0,0,1-2.245-2.142l-1.5-31.5a2.251,2.251,0,0,1,2.141-2.355,2.206,2.206,0,0,1,2.354,2.142l1.5,31.5a2.249,2.249,0,0,1-2.14,2.353Z" transform="translate(-3719 -4555.004)"/>
      </g>
    </g>
  </g>
</svg>
