<svg xmlns="http://www.w3.org/2000/svg" xmlns:xlink="http://www.w3.org/1999/xlink" width="180" height="180" viewBox="0 0 180 180">
  <defs>
    <clipPath id="clip-Documents_3x">
      <rect width="180" height="180"/>
    </clipPath>
  </defs>
  <g id="Documents_3x" clip-path="url(#clip-Documents_3x)">
    <g id="Group_1592" data-name="Group 1592" transform="translate(9932.204 -7597.486)">
      <path id="Path_987" data-name="Path 987" d="M-9792.812,7648.482h-65.577a4.294,4.294,0,0,1-3.043-1.264l-4.8-4.819a6.512,6.512,0,0,0-4.614-1.917h-20.75a8.632,8.632,0,0,0-8.607,8.607v73.785a8.632,8.632,0,0,0,8.607,8.608h98.785a8.632,8.632,0,0,0,8.607-8.608v-65.785A8.632,8.632,0,0,0-9792.812,7648.482Zm3.607,12h-106v-3a3.009,3.009,0,0,1,3-3h100a3.009,3.009,0,0,1,3,3Z"/>
    </g>
  </g>
</svg>
