<svg xmlns="http://www.w3.org/2000/svg" xmlns:xlink="http://www.w3.org/1999/xlink" width="104" height="104" viewBox="0 0 104 104">
  <defs>
    <clipPath id="clip-_3x_150">
      <rect width="104" height="104"/>
    </clipPath>
  </defs>
  <g id="_3x_150" data-name="@3x – 150" clip-path="url(#clip-_3x_150)">
    <g id="Group_644" data-name="Group 644" transform="translate(1740.558 -5482.387)">
      <g id="Group_642" data-name="Group 642">
        <path id="Path_395" data-name="Path 395" d="M-1661.558,5549.387v10a2.027,2.027,0,0,1-2,2h-50a2.027,2.027,0,0,1-2-2v-10h-6v10a8.01,8.01,0,0,0,8,8h50a8.01,8.01,0,0,0,8-8v-10Z"/>
      </g>
      <g id="Group_643" data-name="Group 643">
        <path id="Path_396" data-name="Path 396" d="M-1690.825,5553.352a3,3,0,0,0,2.267,1.035,3,3,0,0,0,2.267-1.035l13-15a3,3,0,0,0-.3-4.231,3,3,0,0,0-4.232.3l-7.733,8.922v-41.958h-6v41.958l-7.733-8.922a3,3,0,0,0-4.232-.3,3,3,0,0,0-.3,4.231Z"/>
      </g>
    </g>
  </g>
</svg>
