<svg xmlns="http://www.w3.org/2000/svg" xmlns:xlink="http://www.w3.org/1999/xlink" width="104" height="104" viewBox="0 0 104 104"  fill="#fff">
  <defs>
    <clipPath id="clip-_3x_115">
      <rect width="104" height="104"/>
    </clipPath>
  </defs>
  <g id="_3x_115" data-name="@3x – 115" clip-path="url(#clip-_3x_115)">
    <g id="Group_453" data-name="Group 453" transform="translate(-6392.225 -1403.835)">
      <g id="Group_449" data-name="Group 449">
        <path id="Path_214" data-name="Path 214" d="M6464.225,1449.3v33.578a1.013,1.013,0,0,1-1,1h-46a1.013,1.013,0,0,1-1-1v-46a1.013,1.013,0,0,1,1-1h33.553l6-6h-39.553a7.008,7.008,0,0,0-7,7v46a7.009,7.009,0,0,0,7,7h46a7.008,7.008,0,0,0,7-7V1443.3Z"/>
      </g>
      <g id="Group_452" data-name="Group 452">
        <g id="Group_450" data-name="Group 450">
          <path id="Path_215" data-name="Path 215" d="M6476,1430.4l2.029-2.029a3.014,3.014,0,0,0,0-4.262l-1.4-1.4a3.014,3.014,0,0,0-4.262,0l-2.029,2.029Z"/>
        </g>
        <g id="Group_451" data-name="Group 451">
          <path id="Path_216" data-name="Path 216" d="M6443.194,1463.215l30.69-30.69-5.657-5.657-30.69,30.69s-2.171,1.828-2.671,8.328C6441.366,1465.386,6443.194,1463.215,6443.194,1463.215Z"/>
        </g>
      </g>
    </g>
  </g>
</svg>
