<svg xmlns="http://www.w3.org/2000/svg" xmlns:xlink="http://www.w3.org/1999/xlink" width="84" height="84" viewBox="0 0 84 84">
  <defs>
    <clipPath id="clip-_3x_9">
      <rect width="84" height="84"/>
    </clipPath>
  </defs>
  <g id="_3x_9" data-name="@3x – 9" clip-path="url(#clip-_3x_9)">
    <g id="Group_123" data-name="Group 123" transform="translate(-6676.565 855.143)">
      <g id="Group_120" data-name="Group 120">
        <g id="Group_119" data-name="Group 119" transform="translate(6692.565 -839.143)">
          <path id="Path_47" data-name="Path 47" d="M6713.565-797.143a21.024,21.024,0,0,1-21-21,21.023,21.023,0,0,1,21-21,21.023,21.023,0,0,1,21,21A21.024,21.024,0,0,1,6713.565-797.143Zm0-39a18.02,18.02,0,0,0-18,18,18.021,18.021,0,0,0,18,18,18.022,18.022,0,0,0,18-18A18.021,18.021,0,0,0,6713.565-836.143Z" transform="translate(-6692.565 839.143)"/>
        </g>
      </g>
      <g id="Group_122" data-name="Group 122">
        <g id="Group_121" data-name="Group 121">
          <path id="Path_48" data-name="Path 48" d="M6740.613-786.86l-15.729-15.729,4.235-4.235,15.729,15.73a1.334,1.334,0,0,1,0,1.888l-2.346,2.346A1.335,1.335,0,0,1,6740.613-786.86Z" transform="translate(0.325 0.325)"/>
        </g>
      </g>
    </g>
  </g>
</svg>
