<svg xmlns="http://www.w3.org/2000/svg" xmlns:xlink="http://www.w3.org/1999/xlink" width="87" height="87" viewBox="0 0 87 87">
  <defs>
    <clipPath id="clip-General_settings_">
      <rect width="87" height="87"/>
    </clipPath>
  </defs>
  <g id="General_settings_" clip-path="url(#clip-General_settings_)">
    <g id="Group_1007" data-name="Group 1007" transform="translate(-6531.797 -1861.482)">
      <rect id="Rectangle_181" data-name="Rectangle 181" width="87" height="87" rx="19.973" transform="translate(6531.797 1861.483)" fill="#8e8e93"/>
      <path id="Path_550" data-name="Path 550" d="M6607.227,1914.525l-4.156-2.813a2.324,2.324,0,0,1,.688-4.165l4.84-1.326a1.507,1.507,0,0,0,.168-.078c.013-.386.03-.771.03-1.16,0-.63-.021-1.255-.055-1.876a1.5,1.5,0,0,0-.178-.078l-4.866-1.222a2.323,2.323,0,0,1-.778-4.149l4.094-2.9a1.7,1.7,0,0,0,.14-.14q-.469-1.447-1.063-2.835a1.649,1.649,0,0,0-.2-.014l-4.991.517a2.323,2.323,0,0,1-2.15-3.633l2.855-4.127a1.77,1.77,0,0,0,.08-.169q-.939-1.2-1.979-2.306a1.465,1.465,0,0,0-.18.052l-4.513,2.192a2.323,2.323,0,0,1-3.263-2.678l1.272-4.854a1.629,1.629,0,0,0,.017-.192q-1.284-.8-2.643-1.49a1.806,1.806,0,0,0-.156.115l-3.492,3.6a2.323,2.323,0,0,1-3.982-1.4l-.466-5a1.473,1.473,0,0,0-.051-.193c-.982-.207-1.982-.366-2.993-.485a1.5,1.5,0,0,0-.1.157l-2.049,4.581a2.323,2.323,0,0,1-4.221.045l-2.146-4.535a1.475,1.475,0,0,0-.11-.158c-1.009.141-2,.329-2.982.558a1.55,1.55,0,0,0-.046.188l-.358,5a2.323,2.323,0,0,1-3.951,1.486l-3.568-3.528a1.785,1.785,0,0,0-.162-.114q-1.343.715-2.607,1.549a1.721,1.721,0,0,0,.021.191l1.375,4.825a2.324,2.324,0,0,1-3.205,2.749l-4.559-2.095a1.6,1.6,0,0,0-.186-.051q-1.014,1.126-1.927,2.34a1.432,1.432,0,0,0,.088.178l2.943,4.064a2.324,2.324,0,0,1-2.072,3.679l-5-.409a1.8,1.8,0,0,0-.2.016q-.565,1.4-1.008,2.857a1.514,1.514,0,0,0,.144.138l4.156,2.813a2.323,2.323,0,0,1-.689,4.165l-4.839,1.326a1.562,1.562,0,0,0-.168.078c-.014.386-.03.771-.03,1.161,0,.629.021,1.254.055,1.876a1.437,1.437,0,0,0,.178.077l4.866,1.222a2.323,2.323,0,0,1,.778,4.149l-4.094,2.9a1.718,1.718,0,0,0-.141.14c.314.965.666,1.912,1.063,2.836a1.67,1.67,0,0,0,.2.013l4.99-.517a2.324,2.324,0,0,1,2.151,3.633l-2.855,4.127a1.474,1.474,0,0,0-.08.169q.938,1.2,1.979,2.307a1.47,1.47,0,0,0,.179-.053l4.514-2.192a2.323,2.323,0,0,1,3.262,2.679l-1.271,4.854a1.355,1.355,0,0,0-.017.192q1.282.8,2.643,1.489a1.658,1.658,0,0,0,.156-.115l3.492-3.6a2.323,2.323,0,0,1,3.982,1.4l.465,4.995a1.592,1.592,0,0,0,.052.193c.982.207,1.981.367,2.992.486a1.536,1.536,0,0,0,.106-.158l2.048-4.581a2.323,2.323,0,0,1,4.221-.045l2.147,4.535a1.723,1.723,0,0,0,.11.158c1.01-.141,2-.329,2.981-.558a1.387,1.387,0,0,0,.046-.188l.359-5a2.324,2.324,0,0,1,3.951-1.487l3.568,3.528a1.507,1.507,0,0,0,.162.114q1.343-.716,2.607-1.549a1.634,1.634,0,0,0-.022-.191l-1.374-4.825a2.323,2.323,0,0,1,3.2-2.748l4.559,2.095a1.658,1.658,0,0,0,.187.05q1.014-1.126,1.926-2.34a1.572,1.572,0,0,0-.087-.178l-2.943-4.064a2.324,2.324,0,0,1,2.071-3.679l5,.41a1.79,1.79,0,0,0,.2-.017c.376-.933.715-1.885,1.008-2.857A1.737,1.737,0,0,0,6607.227,1914.525Zm-38.721-30.537a21.777,21.777,0,0,1,6.791-1.085,22.066,22.066,0,0,1,21.573,17.462,2.429,2.429,0,0,1-2.348,2.969h-15.638a4.547,4.547,0,0,1-3.937-2.273l-7.826-13.558A2.426,2.426,0,0,1,6568.506,1883.988Zm-4.153,36.925a2.426,2.426,0,0,1-3.721.575,22.069,22.069,0,0,1,.11-33.1,2.425,2.425,0,0,1,3.711.583l7.859,13.613a4.544,4.544,0,0,1,0,4.545Zm32.6-11.742a22.062,22.062,0,0,1-21.656,17.891,21.809,21.809,0,0,1-6.925-1.128,2.428,2.428,0,0,1-1.376-3.512l7.952-13.771a4.543,4.543,0,0,1,3.936-2.272h15.689A2.392,2.392,0,0,1,6596.953,1909.171Z" fill="#fff"/>
    </g>
  </g>
</svg>
