<svg version="1.0" xmlns="http://www.w3.org/2000/svg" width="652px" height="861px" viewBox="0 0 6520 8610" preserveAspectRatio="xMidYMid meet">
    <g id="layer101" fill="#8f8f94" stroke="none">
        <path d="M900 8191 l-515 -8 -57 -27 c-113 -53 -166 -148 -180 -321 -25 -311 -14 -7451 12 -7519 15 -42 83 -101 155 -137 60 -29 80 -34 194 -41 176 -12 3065 -21 3346 -10 277 10 275 9 431 143 135 115 1378 1351 1633 1624 225 241 266 290 320 378 l41 67 0 2757 0 2757 -21 66 c-24 72 -45 106 -98 163 -48 52 -75 64 -184 87 -89 19 -155 20 -2327 24 -1229 2 -2467 1 -2750 -3z"/>
        </g>
    <g id="layer102" fill="#f2f2f7" stroke="none">
        <path d="M706 8099 c-308 -7 -320 -8 -365 -31 -34 -18 -53 -36 -73 -74 -27 -50 -28 -53 -40 -355 -18 -444 -18 -6630 0 -6919 20 -327 43 -435 102 -465 76 -39 111 -40 1976 -40 l1802 0 41 45 c86 92 96 151 106 620 9 454 24 820 36 885 6 32 18 73 26 90 53 102 182 197 322 239 78 23 265 34 756 46 565 13 646 23 711 83 95 88 98 189 98 2897 0 2384 -7 2738 -55 2862 -32 82 -169 104 -724 118 -426 11 -4258 10 -4719 -1z"/>
        </g>
</svg>
