<!DOCTYPE svg PUBLIC "-//W3C//DTD SVG 20010904//EN" "http://www.w3.org/TR/2001/REC-SVG-20010904/DTD/svg10.dtd">
<svg version="1.0" xmlns="http://www.w3.org/2000/svg" width="521px" height="419px" viewBox="0 0 5210 4190" preserveAspectRatio="xMidYMid meet">
<g id="layer101" fill="#85d6f9" stroke="none">
 <path d="M0 2095 l0 -2095 2605 0 2605 0 0 2095 0 2095 -2605 0 -2605 0 0 -2095z"/>
 </g>
<g id="layer102" fill="#a7ddf5" stroke="none">
 <path d="M0 2095 l0 -2095 2605 0 2605 0 0 2095 0 2095 -2605 0 -2605 0 0 -2095z m4355 1922 l50 -5 -45 7 c-26 5 72 8 225 8 149 0 261 -3 250 -7 -12 -5 6 -8 48 -8 38 -1 75 -6 82 -12 8 -7 19 -9 24 -5 7 3 8 0 5 -10 -5 -11 -2 -14 12 -9 11 4 16 4 12 -1 -4 -4 3 -17 15 -29 12 -12 24 -25 26 -31 2 -5 8 -21 13 -34 6 -16 5 -27 -2 -31 -8 -5 -7 -9 3 -13 12 -5 15 -30 16 -132 1 -70 6 -136 12 -147 7 -14 7 -23 -2 -34 -8 -10 -9 -17 0 -28 8 -9 9 -44 4 -117 -5 -57 -6 -599 -3 -1204 4 -892 3 -1109 -8 -1149 -16 -56 -74 -118 -131 -138 -53 -19 -4669 -19 -4722 0 -52 18 -116 85 -130 135 -14 49 -22 2364 -9 2372 4 3 9 101 9 218 1 118 4 226 7 242 9 48 32 82 64 93 16 6 30 17 30 24 0 19 63 55 68 40 2 -7 12 -12 23 -12 11 0 16 5 13 14 -4 11 298 13 1993 11 1099 -2 2021 -6 2048 -8z"/>
 <path d="M438 4013 c23 -2 61 -2 85 0 23 2 4 4 -43 4 -47 0 -66 -2 -42 -4z"/>
 <path d="M1878 4013 c23 -2 61 -2 85 0 23 2 4 4 -43 4 -47 0 -66 -2 -42 -4z"/>
 <path d="M3798 4013 c23 -2 61 -2 85 0 23 2 4 4 -43 4 -47 0 -66 -2 -42 -4z"/>
 </g>
<g id="layer103" fill="#9be1ff" stroke="none">
 <path d="M0 2095 l0 -2095 2605 0 2605 0 0 2095 0 2095 -2605 0 -2605 0 0 -2095z m4580 1946 c387 -8 402 -10 453 -59 57 -54 63 -80 71 -318 3 -88 1 -135 -6 -142 -8 -8 -8 -15 1 -25 14 -18 11 -2441 -3 -2471 -6 -12 -6 -17 0 -14 5 4 7 -54 3 -145 -6 -167 -14 -194 -70 -241 -72 -61 35 -56 -1476 -63 -1042 -5 -1384 -3 -1379 5 5 9 292 12 1109 13 606 1 1227 3 1379 4 l277 2 45 27 c29 17 56 44 73 74 26 44 28 55 31 182 2 108 0 131 -9 115 -20 -34 -82 -84 -119 -98 -52 -18 -4669 -18 -4721 1 -36 13 -117 83 -121 105 -2 7 -5 -134 -8 -313 l-6 -325 -2 345 c-12 1421 -14 2681 -5 2692 12 16 16 131 4 123 -12 -7 -2 341 11 383 12 41 60 97 102 120 27 15 80 18 431 22 640 9 3535 9 3935 1z m-2496 -3470 c3 -5 -18 -12 -46 -16 -104 -14 -163 -59 -295 -221 -155 -192 -168 -199 -348 -209 -92 -5 -127 -4 -120 3 6 6 58 12 119 14 64 1 118 7 133 15 14 7 34 13 44 13 11 0 19 5 19 10 0 6 18 27 41 47 22 20 46 48 54 62 7 14 24 38 36 52 13 14 57 61 96 106 82 91 120 111 255 132 4 1 9 -3 12 -8z m-1964 -267 c0 -52 78 -135 138 -149 34 -7 53 -25 27 -25 -49 0 -133 58 -159 110 -18 34 -28 93 -16 85 6 -3 10 -13 10 -21z m535 -175 c11 -11 -42 -11 -217 -2 -70 3 -126 9 -124 12 6 10 330 0 341 -10z"/>
 <path d="M1078 4023 c23 -2 61 -2 85 0 23 2 4 4 -43 4 -47 0 -66 -2 -42 -4z"/>
 <path d="M1581 4026 c2 -2 99 -6 214 -8 131 -3 174 -2 115 2 -100 8 -336 13 -329 6z"/>
 <path d="M4043 4023 c26 -2 67 -2 90 0 23 2 2 3 -48 3 -49 0 -68 -1 -42 -3z"/>
 <path d="M213 3995 c-16 -13 -39 -34 -53 -45 l-25 -20 35 14 c19 8 36 20 38 28 1 8 15 21 30 31 15 9 21 17 15 17 -7 0 -25 -11 -40 -25z"/>
 <path d="M438 4013 c23 -2 61 -2 85 0 23 2 4 4 -43 4 -47 0 -66 -2 -42 -4z"/>
 <path d="M3798 4013 c23 -2 61 -2 85 0 23 2 4 4 -43 4 -47 0 -66 -2 -42 -4z"/>
 </g>
<g id="layer104" fill="#feffff" stroke="none">
 <path d="M0 2095 l0 -2095 2605 0 2605 0 0 2095 0 2095 -2605 0 -2605 0 0 -2095z m4580 1946 c387 -8 402 -10 453 -59 53 -49 59 -75 68 -252 10 -191 9 -2630 -1 -2860 -7 -170 -15 -197 -71 -244 -72 -61 43 -56 -1562 -64 l-1472 -7 -50 -27 c-55 -29 -128 -101 -222 -218 -78 -97 -119 -137 -168 -163 -40 -22 -43 -22 -655 -22 -670 0 -660 0 -726 58 -73 63 -68 -4 -77 967 -4 481 -6 1289 -4 1795 4 1013 0 960 65 1028 59 63 50 62 487 67 640 9 3535 9 3935 1z"/>
 </g>

</svg>