<!DOCTYPE svg PUBLIC "-//W3C//DTD SVG 20010904//EN" "http://www.w3.org/TR/2001/REC-SVG-20010904/DTD/svg10.dtd">
<svg version="1.0" xmlns="http://www.w3.org/2000/svg" width="506px" height="356px" viewBox="0 0 5060 3560" preserveAspectRatio="xMidYMid meet">
<g id="layer101" fill="#2e81e3" stroke="none">
 <path d="M1139 2828 c-23 -18 -57 -55 -76 -82 l-33 -48 0 -912 c1 -710 4 -919 14 -946 25 -71 74 -129 136 -160 l59 -30 336 0 336 0 56 27 c31 15 90 59 131 98 l75 70 366 5 c201 3 374 9 383 13 10 5 20 17 23 27 8 26 -23 97 -53 120 -24 19 -41 20 -422 20 l-397 0 -39 -26 c-21 -15 -69 -55 -106 -90 -47 -44 -79 -65 -105 -71 -21 -4 -142 -8 -270 -8 -218 0 -233 1 -259 21 -61 45 -69 65 -69 187 0 62 4 118 8 125 7 9 176 12 793 12 771 0 784 0 804 20 39 39 21 165 -24 175 -12 3 -355 6 -763 8 l-743 2 -30 31 c-47 47 -52 107 -48 679 l3 505 28 27 27 28 1100 0 1100 0 27 -28 28 -27 5 -238 c6 -286 8 -292 93 -292 43 0 58 5 75 23 22 23 22 29 22 311 0 319 0 317 -69 389 -68 72 36 67 -1285 67 l-1194 0 -43 -32z"/>
 <path d="M3520 2021 c-93 -10 -237 -72 -329 -142 -115 -86 -207 -212 -260 -354 -24 -66 -26 -81 -26 -245 1 -163 2 -180 26 -245 64 -173 210 -335 376 -419 97 -49 185 -66 333 -66 123 0 144 3 226 29 117 38 193 84 287 171 80 75 139 168 195 307 25 64 27 76 26 228 -1 148 -3 165 -28 229 -49 126 -106 217 -181 291 -92 92 -132 118 -257 170 -96 39 -114 43 -214 48 -60 2 -138 2 -174 -2z m151 -348 c6 -16 13 -84 15 -153 6 -150 9 -166 30 -174 9 -4 80 -9 157 -11 102 -4 147 -9 164 -20 29 -19 29 -36 2 -61 -18 -16 -42 -20 -170 -24 -191 -6 -184 0 -185 -158 -1 -133 -8 -173 -32 -195 -41 -38 -61 25 -62 194 0 155 3 153 -188 159 -159 5 -182 12 -182 56 0 38 33 47 180 49 144 2 177 11 184 48 3 12 7 81 9 152 3 72 8 138 12 148 12 28 54 22 66 -10z"/>
 </g>

</svg>