<svg version="1.0" xmlns="http://www.w3.org/2000/svg" xmlns:xlink="http://www.w3.org/1999/xlink" width="214px" height="280px" viewBox="0 0 2140 2800" preserveAspectRatio="xMidYMid meet">
    <clipPath id="clip">
        <path d="M0 1400 l0 -1400 1070 0 1070 0 0 1400 0 1400 -1070 0 -1070 0 0 -1400z m2067 1317 l38 -37 0 -938 0 -937 -27 -45 c-15 -25 -172 -190 -350 -366 -320 -319 -323 -321 -372 -328 -72 -9 -1154 -6 -1204 3 -42 8 -85 38 -92 64 -2 6 -5 570 -7 1252 -3 915 -1 1251 8 1282 13 47 34 70 75 83 16 5 449 8 961 7 l933 -2 37 -38z"/>
    </clipPath>
    <g id="layer101" fill="#000000" stroke="none" fill-opacity="1.5" style="clip-path: url(#clip);">
        <path d="M0 1400 l0 -1400 1070 0 1070 0 0 1400 0 1400 -1070 0 -1070 0 0 -1400z"/>
    </g>
    <g id="layer102" fill="#f2f2f7" stroke="none">
        <path d="M134 2718 c-24 -8 -34 -19 -43 -48 -8 -27 -11 -384 -11 -1264 0 -1367 -4 -1285 67 -1306 27 -8 216 -10 635 -8 l597 3 23 25 c22 24 23 31 28 265 5 229 6 241 28 272 12 17 43 41 67 53 42 20 64 22 267 26 257 4 260 5 277 84 15 70 15 1749 0 1819 -20 94 74 86 -978 88 -605 1 -937 -2 -957 -9z"/>
    </g>
</svg>
